<svg xmlns="http://www.w3.org/2000/svg" width="430" height="430" style="width:100%;height:100%;transform:translate3d(0,0,0);content-visibility:visible" viewBox="0 0 430 430"><defs><clipPath id="o"><path d="M0 0h430v430H0z"/></clipPath><clipPath id="p"><path d="M0 0h430v430H0z"/></clipPath><clipPath id="h"><path d="M0 0h430v430H0z"/></clipPath><clipPath id="l"><path d="M0 0h430v430H0z"/></clipPath><clipPath id="m"><path d="M0 0h430v430H0z"/></clipPath><clipPath id="n"><path d="M0 0h430v430H0z"/></clipPath><filter id="a" width="100%" height="100%" x="0%" y="0%" filterUnits="objectBoundingBox"><feComponentTransfer in="SourceGraphic"><feFuncA tableValues="1.0 0.0" type="table"/></feComponentTransfer></filter><filter id="c" width="100%" height="100%" x="0%" y="0%" filterUnits="objectBoundingBox"><feComponentTransfer in="SourceGraphic"><feFuncA tableValues="1.0 0.0" type="table"/></feComponentTransfer></filter><filter id="e" width="100%" height="100%" x="0%" y="0%" filterUnits="objectBoundingBox"><feComponentTransfer in="SourceGraphic"><feFuncA tableValues="1.0 0.0" type="table"/></feComponentTransfer></filter><filter id="r" width="300%" height="300%" x="-100%" y="-100%"><feGaussianBlur result="filter_result_0" stdDeviation="52.5 52.5"/></filter><mask id="i" mask-type="alpha"><g filter="url(#a)"><path fill="#fff" d="M0 0h430v430H0z" opacity="0"/><use xmlns:ns1="http://www.w3.org/1999/xlink" ns1:href="#b"/></g></mask><mask id="j" mask-type="alpha"><g filter="url(#c)"><path fill="#fff" d="M0 0h430v430H0z" opacity="0"/><use xmlns:ns2="http://www.w3.org/1999/xlink" ns2:href="#d"/></g></mask><mask id="k" mask-type="alpha"><g filter="url(#e)"><path fill="#fff" d="M0 0h430v430H0z" opacity="0"/><use xmlns:ns3="http://www.w3.org/1999/xlink" ns3:href="#f"/></g></mask><mask id="q" mask-type="alpha"><use xmlns:ns4="http://www.w3.org/1999/xlink" ns4:href="#g"/></mask><g id="g" clip-path="url(#h)" style="display:block"><g mask="url(#i)" style="display:block"><path fill-opacity="0" stroke="#08A88A" stroke-linecap="round" stroke-linejoin="round" stroke-width="12" d="m189.811 181.885-30.343 3.321-60.908 6.664c-21.852 2.391-40.939-14.722-40.939-36.704 0 0 0 0 0 0 0-21.982 19.087-39.095 40.939-36.704a3820073.801 3820073.801 0 0 0 91.251 9.985v53.438zm-132.19-26.719H35.469" class="secondary"/></g><path fill-opacity="0" stroke="#121331" stroke-linecap="round" stroke-linejoin="round" stroke-width="12" d="M-4.986 7.438 4.986-7.438m-73.017 66.662 5.338-7.572 28.413-40.303C-27.857 2.238-16.169-.832-7.398 6.048c0 0 0 0 0 0l7.802 4.49c8.771 6.88 8.789 20.763 1.47 29.171L-31.36 77.887l-12.056 13.85a19.69 19.69 0 0 1-1.561 1.6" class="primary" style="display:block" transform="translate(365.607 144.111)"/><g mask="url(#j)" style="display:block"><path fill-opacity="0" stroke="#121331" stroke-linecap="round" stroke-linejoin="round" stroke-width="12" d="m227.647 206.43-13.692-29.445c-5.584-12.007-19.977-17.264-31.984-11.68l-5.719 2.659c-12.007 5.584-17.263 19.977-11.679 31.984l13.692 29.445a23.867 23.867 0 0 0 7.16 8.919" class="primary"/></g><g mask="url(#k)" style="display:block"><path fill-opacity="0" stroke="#121331" stroke-linecap="round" stroke-linejoin="round" stroke-width="12" d="M320.852 234.644v7.334c0 15.4-12.6 28-28 28h-79.384c-15.4 0-28-12.6-28-28v-7.334c0-15.4 12.6-28 28-28h79.384c15.4 0 28 12.6 28 28z" class="primary"/></g><path fill-opacity="0" stroke="#121331" stroke-linecap="round" stroke-linejoin="round" stroke-width="12" d="m5.943-68.2-.555.032c-14.188.827-25.38 12.323-25.893 26.525a265.11 265.11 0 0 1-13.171 73.477c-4.452 13.496 2.05 28.164 15.067 33.868l.509.223c14.876 6.518 32.113-1.202 37.203-16.625a320.666 320.666 0 0 0 15.952-88.989c.584-16.23-12.899-29.456-29.112-28.511z" class="primary" style="display:block" transform="translate(185.574 123.129)"/><path fill-opacity="0" stroke="#121331" stroke-linecap="round" stroke-linejoin="round" stroke-width="12" d="m18.462-66.566-.557-.071c-14.227-1.798-27.453 7.54-30.583 21.535a267.483 267.483 0 0 1-26.628 70.46c-6.908 12.567-3.164 28.318 8.696 36.379l.464.315c13.554 9.212 32.078 4.735 39.975-9.625a323.566 323.566 0 0 0 32.25-85.335c3.575-15.993-7.358-31.603-23.617-33.658z" class="primary" style="display:block" transform="translate(187.466 306.987)"/><path fill-opacity="0" stroke="#121331" stroke-linecap="round" stroke-linejoin="round" stroke-width="12" d="m-27.504-63.261-.477.295c-12.189 7.555-16.591 23.135-10.218 35.981a267.468 267.468 0 0 1 23.641 71.518c2.539 14.114 15.36 24 29.65 22.802l.559-.047c16.331-1.369 27.911-16.505 25.012-32.635a323.599 323.599 0 0 0-28.632-86.617c-7.286-14.68-25.606-19.931-39.535-11.297z" class="primary" style="display:block" transform="translate(320.503 307.562)"/></g><g id="f" fill="red" clip-path="url(#l)" style="display:block"><path d="m18.462-66.566-.557-.071c-14.227-1.798-27.453 7.54-30.583 21.535a267.483 267.483 0 0 1-26.628 70.46c-6.908 12.567-3.164 28.318 8.696 36.379l.464.315c13.554 9.212 32.078 4.735 39.975-9.625a323.566 323.566 0 0 0 32.25-85.335c3.575-15.993-7.358-31.603-23.617-33.658z" style="display:block" transform="translate(187.466 306.987)"/><path d="m-27.504-63.261-.477.295c-12.189 7.555-16.591 23.135-10.218 35.981a267.468 267.468 0 0 1 23.641 71.518c2.539 14.114 15.36 24 29.65 22.802l.559-.047c16.331-1.369 27.911-16.505 25.012-32.635a323.599 323.599 0 0 0-28.632-86.617c-7.286-14.68-25.606-19.931-39.535-11.297z" style="display:block" transform="translate(320.503 307.562)"/><path d="m5.943-68.2-.555.032c-14.188.827-25.38 12.323-25.893 26.525a265.11 265.11 0 0 1-13.171 73.477c-4.452 13.496 2.05 28.164 15.067 33.868l.509.223c14.876 6.518 32.113-1.202 37.203-16.625a320.666 320.666 0 0 0 15.952-88.989c.584-16.23-12.899-29.456-29.112-28.511z" style="display:block" transform="translate(185.574 123.129)"/></g><g id="d" fill="red" clip-path="url(#m)" style="display:block"><path d="m18.462-66.566-.557-.071c-14.227-1.798-27.453 7.54-30.583 21.535a267.483 267.483 0 0 1-26.628 70.46c-6.908 12.567-3.164 28.318 8.696 36.379l.464.315c13.554 9.212 32.078 4.735 39.975-9.625a323.566 323.566 0 0 0 32.25-85.335c3.575-15.993-7.358-31.603-23.617-33.658z" style="display:block" transform="translate(187.466 306.987)"/><path d="m-27.504-63.261-.477.295c-12.189 7.555-16.591 23.135-10.218 35.981a267.468 267.468 0 0 1 23.641 71.518c2.539 14.114 15.36 24 29.65 22.802l.559-.047c16.331-1.369 27.911-16.505 25.012-32.635a323.599 323.599 0 0 0-28.632-86.617c-7.286-14.68-25.606-19.931-39.535-11.297z" style="display:block" transform="translate(320.503 307.562)"/><path d="m5.943-68.2-.555.032c-14.188.827-25.38 12.323-25.893 26.525a265.11 265.11 0 0 1-13.171 73.477c-4.452 13.496 2.05 28.164 15.067 33.868l.509.223c14.876 6.518 32.113-1.202 37.203-16.625a320.666 320.666 0 0 0 15.952-88.989c.584-16.23-12.899-29.456-29.112-28.511z" style="display:block" transform="translate(185.574 123.129)"/></g><g id="b" fill="red" clip-path="url(#n)" style="display:block"><path d="m18.462-66.566-.557-.071c-14.227-1.798-27.453 7.54-30.583 21.535a267.483 267.483 0 0 1-26.628 70.46c-6.908 12.567-3.164 28.318 8.696 36.379l.464.315c13.554 9.212 32.078 4.735 39.975-9.625a323.566 323.566 0 0 0 32.25-85.335c3.575-15.993-7.358-31.603-23.617-33.658z" style="display:block" transform="translate(187.466 306.987)"/><path d="m-27.504-63.261-.477.295c-12.189 7.555-16.591 23.135-10.218 35.981a267.468 267.468 0 0 1 23.641 71.518c2.539 14.114 15.36 24 29.65 22.802l.559-.047c16.331-1.369 27.911-16.505 25.012-32.635a323.599 323.599 0 0 0-28.632-86.617c-7.286-14.68-25.606-19.931-39.535-11.297z" style="display:block" transform="translate(320.503 307.562)"/><path d="m5.943-68.2-.555.032c-14.188.827-25.38 12.323-25.893 26.525a265.11 265.11 0 0 1-13.171 73.477c-4.452 13.496 2.05 28.164 15.067 33.868l.509.223c14.876 6.518 32.113-1.202 37.203-16.625a320.666 320.666 0 0 0 15.952-88.989c.584-16.23-12.899-29.456-29.112-28.511z" style="display:block" transform="translate(185.574 123.129)"/></g></defs><g clip-path="url(#o)"><g clip-path="url(#p)" mask="url(#q)" style="display:block"><g filter="url(#r)" transform="rotate(-94 238.762 -16.565) scale(2.4)"><g class="design"><path fill="#4BE1EC" d="M0-250c137.975 0 250 112.025 250 250S137.975 250 0 250-250 137.975-250 0-137.975-250 0-250z" class="primary"/></g><g class="design"><path fill="#CB5EEE" d="M113.242-295.384c97.478 0 176.5 79.022 176.5 176.5s-79.022 176.5-176.5 176.5c-43.948 0-74.396-34.057-105.29-60.631-37.631-32.369-71.21-62.338-71.21-115.869 0-97.478 79.022-176.5 176.5-176.5z" class="secondary"/></g></g></g></g></svg>